<svg xmlns="http://www.w3.org/2000/svg" width="110" height="110" version="1.1"><path fill="#FDFDFE" d="M0 0 C36.3 0 72.6 0 110 0 C110 36.3 110 72.6 110 110 C73.7 110 37.4 110 0 110 C0 73.7 0 37.4 0 0 Z" transform="translate(0,0)"/><path fill="#171B24" d="M0 0 C8.25 0 16.5 0 25 0 C25 0.66 25 1.32 25 2 C22.69 2.33 20.38 2.66 18 3 C17.93051433 10.90156605 17.87719636 18.80300463 17.84456348 26.70480061 C17.82890195 30.37386676 17.80765525 34.04272401 17.77368164 37.71166992 C17.74110486 41.25188947 17.72315066 44.79190799 17.71536827 48.33226585 C17.70712076 50.34147655 17.68369863 52.35060628 17.66011047 54.35969543 C17.65988388 55.58073471 17.65965729 56.80177399 17.65942383 58.05981445 C17.65276199 59.13681107 17.64610016 60.21380768 17.63923645 61.32344055 C17.7911799 64.00485361 17.7911799 64.00485361 19.29960632 65.84635925 C22.17603786 67.79788888 25.3992878 67.43002994 28.75 67.375 C29.4409375 67.38660156 30.131875 67.39820312 30.84375 67.41015625 C35.9167078 67.38154935 39.49005665 66.33743596 44 64 C47.66282325 59.83195975 48.12182611 54.32070064 49 49 C49.66 49 50.32 49 51 49 C51 55.93 51 62.86 51 70 C34.17 70 17.34 70 0 70 C0 69.34 0 68.68 0 68 C2.31 67.01 4.62 66.02 7 65 C7 44.87 7 24.74 7 4 C4.69 3.34 2.38 2.68 0 2 C0 1.34 0 0.68 0 0 Z" transform="translate(31,21)"/><path fill="#20232C" d="M0 0 C0.66 0 1.32 0 2 0 C2 6.93 2 13.86 2 21 C-13.18 21 -28.36 21 -44 21 C-44 20.67 -44 20.34 -44 20 C-43.00145996 19.99589111 -42.00291992 19.99178223 -40.97412109 19.98754883 C-37.24997164 19.96568677 -33.52686818 19.91132599 -29.80322266 19.84741211 C-28.19525214 19.82429329 -26.58713152 19.80985076 -24.97900391 19.80444336 C-22.65953701 19.79510804 -20.34241086 19.75402541 -18.0234375 19.70703125 C-16.95432632 19.71293022 -16.95432632 19.71293022 -15.86361694 19.71894836 C-10.17858167 19.55478621 -7.86307708 17.87590149 -4 14 C-2.74094079 12.06055797 -2.74094079 12.06055797 -2.1875 10.0625 C-1.96835938 9.38316406 -1.74921875 8.70382813 -1.5234375 8.00390625 C-0.83145537 5.35475079 -0.33951523 2.71612183 0 0 Z" transform="translate(80,70)"/></svg>